<svg xmlns="http://www.w3.org/2000/svg" viewBox="0 0 256 256">
  <style>
    .Drop_x0020_Shadow{fill:none;} .Outer_x0020_Glow_x0020_5_x0020_pt{fill:none;} .Blue_x0020_Neon{fill:none;stroke:#8AACDA;stroke-width:7;stroke-linecap:round;stroke-linejoin:round;} .Chrome_x0020_Highlight{fill:url(#SVGID_1_);stroke:#FFFFFF;stroke-width:0.3629;stroke-miterlimit:1;} .Jive_GS{fill:#FFDD00;} .Alyssa_GS{fill:#A6D0E4;} .st0{fill:#673200;} .st1{fill:#FFAACA;} .st2{fill:#C65B00;} .st3{fill:none;stroke:#000000;stroke-width:3;stroke-linecap:round;stroke-linejoin:round;stroke-miterlimit:10;}
  </style>
  <linearGradient id="SVGID_1_" x2="0" y2="-1" gradientUnits="userSpaceOnUse">
    <stop offset="0" stop-color="#656565"/>
    <stop offset=".6" stop-color="#1B1B1B"/>
    <stop offset=".6" stop-color="#545454"/>
    <stop offset="1" stop-color="#3E3E3E"/>
  </linearGradient>
  <g id="left-ear">
    <circle cx="43.9" cy="49.2" r="34.6" class="st0"/>
    <circle cx="46.4" cy="58" r="14.8" class="st1"/>
  </g>
  <g id="right-ear">
    <circle cx="212.1" cy="49.2" r="34.6" class="st0"/>
    <circle cx="209.6" cy="58" r="14.8" class="st1"/>
  </g>
  <g id="face">
    <circle cx="128" cy="133.2" r="108.1" class="st0"/>
    <circle cx="128" cy="172.7" r="42.3" class="st2"/>
    <path d="M174 35.4c-14.5 12-23.7 30.2-23.7 50.5 0 36 29.4 65.3 65.6 65.3 6.4 0 13-1 19-2.8.6-5 1-10.2 1-15.4 0-43.2-25.5-80.6-62-98zM20 133.2c0 5.2.3 10.4 1 15.4 6 1.8 12.5 2.8 19.2 2.8 36.2 0 65.6-29.4 65.6-65.6 0-20.3-9.2-38.5-23.7-50.5-36.5 17.3-62 54.7-62 98z" class="st2"/>
    <path d="M101.2 187c14.6 14.7 38 14.7 52.7 0" class="st3"/>
  </g>
  <circle id="nose" cx="128" cy="138.1" r="13" class="st1"/>
  <circle id="left-eye" cx="84.8" cy="106.5" r="9.3"/>
  <circle id="right-eye" cx="171.2" cy="106.5" r="9.3"/>
</svg>
